<?xml version="1.0" encoding="utf-8"?>
<!-- Generator: Adobe Illustrator 27.5.0, SVG Export Plug-In . SVG Version: 6.00 Build 0)  -->
<svg version="1.1" xmlns="http://www.w3.org/2000/svg" xmlns:xlink="http://www.w3.org/1999/xlink" x="0px" y="0px"
	 viewBox="2504.871 -1808.47 4554.651 3588.58" style="enable-background:new 2504.871 -1808.47 4554.651 3588.58;"
	 xml:space="preserve">
<g id="Layer_1">
</g>
<g id="Layer_2">
</g>
<g id="Dimensions">
	<rect x="2504.871" y="-1808.47" style="fill:#050505;" width="4554.651" height="3588.58"/>
	<g id="Layer_x5F_1_00000036952606878722986700000004489527895954179996_">
		<g id="_105554088494592_00000119836619900689929950000014660823408090073257_">
			<path style="fill-rule:evenodd;clip-rule:evenodd;fill:#F9267C;" d="M4535.673-525.96
				c561.084-226.281,819.988,257.473,637.234,708.47c-142.653,352.035-626.874,300.633-592.359-219.915
				c46.763,62.935,98.636,158.666,131.092,203.604c61.054,84.536,163.321,187.664,276.773,128.151
				c152.465-79.978,152.127-450.645,105.802-593.831C4896.117-911.77,3768.673-27.809,4152.088,196.876
				c-312.3-240.685,733.637-865.39,784.22-422.009c83.273,729.963-201.966,141.367-269.39,24.508
				c-66.383-115.059-211.239-75.88-245.366,57.113c-222.106,865.553,753.476,946.656,923.689,380.047
				C5498.066-272.181,5142.677-865.486,4535.673-525.96L4535.673-525.96z"/>
			
				<linearGradient id="SVGID_1_" gradientUnits="userSpaceOnUse" x1="5105.541" y1="1019.7219" x2="5602.5557" y2="495.8425" gradientTransform="matrix(-0.0715 0.9974 -0.9974 -0.0715 5681.3564 -5083.1704)">
				<stop  offset="0" style="stop-color:#000000"/>
				<stop  offset="0.2166" style="stop-color:#585858"/>
				<stop  offset="0.41" style="stop-color:#A0A0A0"/>
				<stop  offset="0.5696" style="stop-color:#D3D3D3"/>
				<stop  offset="0.6893" style="stop-color:#F3F3F3"/>
				<stop  offset="0.7556" style="stop-color:#FFFFFF"/>
			</linearGradient>
			<path style="fill-rule:evenodd;clip-rule:evenodd;fill:url(#SVGID_1_);" d="M4768.351,385.29
				c-115.02-51.082-203.229-190.025-187.802-422.696c2.129,2.865,4.269,5.799,6.417,8.793
				c-49.396-79.328-143.967-67.03-189.692,6.867c-50.67,365.421,134.546,563.972,356.575,609.241L4768.351,385.29z"/>
			
				<linearGradient id="SVGID_00000007401763765988956010000003849343835769938619_" gradientUnits="userSpaceOnUse" x1="4926.1201" y1="909.756" x2="5293.9321" y2="522.0629" gradientTransform="matrix(-0.0715 0.9974 -0.9974 -0.0715 5681.3564 -5083.1704)">
				<stop  offset="0.0216" style="stop-color:#000000"/>
				<stop  offset="0.0756" style="stop-color:#282828"/>
				<stop  offset="0.1513" style="stop-color:#5A5A5A"/>
				<stop  offset="0.231" style="stop-color:#868686"/>
				<stop  offset="0.3132" style="stop-color:#ACACAC"/>
				<stop  offset="0.3983" style="stop-color:#CACACA"/>
				<stop  offset="0.4875" style="stop-color:#E1E1E1"/>
				<stop  offset="0.5824" style="stop-color:#F2F2F2"/>
				<stop  offset="0.6871" style="stop-color:#FCFCFC"/>
				<stop  offset="0.8207" style="stop-color:#FFFFFF"/>
			</linearGradient>
			<path style="fill-rule:evenodd;clip-rule:evenodd;fill:url(#SVGID_00000007401763765988956010000003849343835769938619_);" d="
				M4915.657,132.839c-66.033,23.895-204.426-256.663-248.737-333.464c-66.383-115.059-211.239-75.88-245.366,57.113
				c-10.898,42.472-18.914,83.055-24.281,121.765c45.726-73.898,140.296-86.195,189.692-6.867
				c15.49,21.588,31.411,46.302,46.895,71.183C4697.648,120.981,4809.189,188.69,4915.657,132.839L4915.657,132.839z"/>
		</g>
	</g>
</g>
<g id="Layer_4">
</g>
</svg>
