<svg width="357" height="90" viewBox="0 0 357 90" fill="none" xmlns="http://www.w3.org/2000/svg">
<path d="M0.6 0.399994H6.104L17.752 12.56L60.632 57.616V0.399994H77.784V90H72.152L60.632 77.84L17.752 32.784V90H0.6V0.399994ZM95.439 54.16V0.399994H112.591V57.104C112.591 62.3093 114.426 66.7893 118.095 70.544C121.85 74.2133 126.33 76.048 131.535 76.048H136.527C141.732 76.048 146.17 74.2133 149.839 70.544C153.594 66.7893 155.471 62.3093 155.471 57.104V0.399994H172.623V54.16C172.623 60.6453 171.002 66.6613 167.759 72.208C164.602 77.6693 160.25 82.0213 154.703 85.264C149.242 88.4213 143.226 90 136.655 90H131.279C126.415 90 121.764 89.0613 117.327 87.184C112.975 85.2213 109.178 82.6613 105.935 79.504C102.778 76.2613 100.218 72.464 98.255 68.112C96.3777 63.6747 95.439 59.024 95.439 54.16ZM236.049 90H217.361L182.289 0.399994H200.721L226.705 72.848L252.817 0.399994H271.249L236.049 90ZM356.736 0.399994V14.352H307.456C304.469 14.352 301.909 15.4187 299.776 17.552C297.728 19.6 296.704 22.1173 296.704 25.104V27.408C296.704 30.3947 297.728 32.9547 299.776 35.088C301.909 37.136 304.469 38.2027 307.456 38.288H339.584L335.488 45.2L339.584 52.112H307.456C304.469 52.1973 301.909 53.3067 299.776 55.44C297.728 57.488 296.704 60.0053 296.704 62.992V65.296C296.704 68.2827 297.728 70.8427 299.776 72.976C301.909 75.024 304.469 76.048 307.456 76.048H356.736V90H303.488C296.832 90 291.157 87.696 286.464 83.088C281.856 78.3947 279.552 72.72 279.552 66.064V62.096C279.552 55.5253 281.899 49.8933 286.592 45.2C281.899 40.5067 279.552 34.8747 279.552 28.304V24.336C279.552 17.68 281.856 12.048 286.464 7.43999C291.157 2.74666 296.832 0.399994 303.488 0.399994H356.736Z" fill="#EAB780"/>
</svg>
